<svg fill="#fff" xmlns="http://www.w3.org/2000/svg" viewBox="0 0 175 68" role="img">
<defs/>
<path class="path-1" fill="#fff" fill-rule="evenodd" d="M16.062 5.154c0-1.771-1.01-3.423-2.51-4.104C12.777.717 11.414.505 9.35.505 7.541.505 4.724.65 3.483.65 2.613.65 1.298.552.571.552a.866.866 0 00-.12.376c0 .097 0 .355.072.473.446.144 1.173.258 1.644.38.398.351.492.66.633 1.344.07.824.118 1.863.118 3.656 0 4.978-.023 7.593-.095 8.16-.092.71-.561 1.44-1.337 1.673-.354.071-.87.19-1.36.237a2.512 2.512 0 00-.049.494c0 .19.025.215.07.333.75 0 2.958-.096 3.803-.096 2.09 0 4.226.096 5.093.096h.588c.072-.096.072-.262.072-.376 0-.143 0-.334-.048-.426-.705-.093-1.76-.237-2.206-.756-.235-.28-.471-.685-.471-1.391L6.906 9.54c1.41.093 2.912.14 3.735.14a8.78 8.78 0 002.72-.423c1.668-.634 2.7-2.29 2.7-4.103m-4.198-.098c0 1.205-.425 2.265-1.197 2.95-.494.401-1.27.638-2.443.638-.492 0-.87-.021-1.01-.047-.187-.025-.307-.046-.307-.169l.026-6.909c.282-.021.681-.118 1.362-.118 1.596 0 2.582.401 3.051 1.395.327.634.518 1.436.518 2.26m25.49 12.221c0-.118-.045-.401-.117-.494-.233 0-1.194-.047-1.547-.309a4.658 4.658 0 01-.4-.592c-.307-1.082-.656-1.813-1.01-2.708-.494-1.179-1.172-2.29-1.736-2.81-.213-.186-.94-.495-1.762-.778-.374-.14-.68-.258-.961-.375.351-.073.515-.098.96-.14 1.74-.216 2.137-.52 2.583-.875.94-.71 1.455-1.792 1.455-3.068 0-1.91-1.22-3.748-2.933-4.293-.566-.165-1.571-.258-2.816-.258-1.762 0-4.227.165-5.4.165-.353 0-2.397-.047-3.217-.047-.353 0-1.244-.046-1.384-.046-.07.165-.117.35-.117.448 0 .093.023.33.046.422.4.047 1.127.14 1.504.212.561.426.75.756.984 1.276.12.756.14 2.688.14 6.013 0 2.41.026 5.19-.092 6.09-.07.587-.282 1.293-.963 1.575-.303.051-.869.144-1.338.166a1.155 1.155 0 00-.117.472c0 .073.046.259.093.377.332 0 3.923-.068 4.672-.068 1.5 0 2.77.067 4.108.067a.98.98 0 00.093-.354c0-.16-.046-.398-.093-.494-.47-.047-1.055-.186-1.314-.237-.587-.28-1.011-.846-1.011-1.674l-.021-5.447c.185-.025.42-.025.61-.025.302 0 .655.05 1.242.376.869.499 1.293.854 1.857 1.724.75 1.18 1.245 3.347 1.478 5.071.07.495.257.921.705.968.187.025 1.431.071 2.323.071h3.358c.093-.096.139-.282.139-.4M30.547 4.942c0 1.461-.986 3.135-2.134 3.418-.47.118-1.06.19-1.926.19-.236 0-.589 0-.87-.05l-.024-2.004v-4.34c0-.283.07-.447.14-.52.07-.071.495-.139.99-.139 1.829 0 2.628.16 3.284 1.272.374.638.54 1.37.54 2.173m18.826 12.309c0-.118-.025-.376-.07-.469-.353-.026-1.313-.118-1.736-.212-.377-.451-.637-.967-.8-1.817-.023-1.132-.048-3.47-.048-5.662V3.29c0-.638.26-1.133.425-1.276.446-.422 1.337-.516 2.09-.613.047-.093.07-.35.07-.448 0-.14-.07-.33-.119-.376h-.68c-.986 0-3.287.118-4.086.118-.492 0-2.792-.071-3.825-.093h-.515c-.072.093-.118.186-.118.398 0 .097.021.334.046.448 1.153.097 1.666.211 1.832.333.282.212.68.731.776 2.003.021.448.044 1.416.067 3.588.025 1.18.049 2.827.049 4.196 0 .685-.049 2.219-.072 3.043-.044.566-.164 1.107-.326 1.416-.282.236-.566.658-2.28.777-.046.092-.07.402-.07.498 0 .187.048.28.048.398h.4c.94 0 3.286-.118 4.505-.118.353 0 2.793.07 3.569.07h.776a.951.951 0 00.092-.4M72.583.907c0-.093-.026-.258-.072-.33h-.542c-1.173 0-1.922.047-4.037.047-.728 0-1.808-.047-2.065-.047h-.61c-.071.047-.097.308-.097.402 0 .118.026.304.122.4.375.119 1.804.28 2.418.686.421.494.605 1.483.677 2.404.026.35.05.706.05 1.673v4.932c0 .566-.024.752-.05 1.014-.395-.448-.963-1.297-1.9-2.358L58.646 1a1.543 1.543 0 00-.355-.305c-.187 0-.517-.025-.702-.025-1.505 0-4.226-.068-4.626-.068a.87.87 0 00-.092.326c0 .051.046.38.067.452.353.093 1.13.212 1.763.896.378.423 1.034 1.014 1.244 1.487.071.165.095.423.095.753 0 1.225-.07 2.949-.07 4.597v4.792c0 .778-.07 1.39-.143 1.792-.492.52-1.242.895-2.464 1.2-.046.122-.093.309-.093.426 0 .073.021.31.07.33h.446c.468 0 1.55-.071 2.254-.071 1.032 0 1.734.07 2.698.07h1.4c.092-.02.118-.307.118-.4 0-.093-.026-.284-.07-.376-.816-.211-2.01-.402-2.81-1.463-.161-.354-.304-2.1-.304-2.928 0-.752-.025-1.787-.025-3.182 0-1.863.025-3.49.048-4.315.141.166.305.376.423.516l10.837 12.247c.118.114.538.14.656.14s.19 0 .282-.047c.046-.119.21-.5.21-1.06 0-.686-.025-1.396-.025-1.747V5.2c0-2.95 1.388-3.774 3.007-3.845.071-.119.097-.33.097-.448m18.275 13.467c-.072-.212-.26-.566-.8-.566-.048 0-.12.025-.164.025-1.41 2.007-2.96 2.76-4.72 2.76-2.441 0-4.178-1.653-4.742-3.115-.307-.777-.727-2.476-.727-4.293 0-1.72.258-3.114.704-4.13 1.033-2.732 2.534-3.582 4.367-3.582 1.527 0 2.793.875 3.756 2.121.4.545.82 1.606 1.194 2.857.097.02.307.067.517.067.142 0 .472-.114.564-.21-.021-.258-.256-2.076-.256-2.642 0-.705.187-1.864.187-2.311-.14-.144-.61-.237-.915-.258-.354.258-.471.562-.8.968-1.313-.947-2.535-1.678-5.21-1.678-2.464 0-4.415.85-5.894 2.337-1.618 1.6-2.51 3.82-2.51 6.65 0 3.018 1.267 5.499 3.31 7.054 1.293.942 3.194 1.58 5.469 1.58 2.864 0 4.954-1.086 6.01-2.523.42-.57.468-.71.66-1.111m19.857-.824c0-.33 0-.473-.025-.684-.118-.073-.164-.073-.353-.073-.164 0-.349 0-.517.047-.795 1.817-1.948 3.233-2.58 3.609-.352.216-.892.262-1.762.262h-1.923c-.75 0-1.339-.072-1.549-.119-.353-.071-.728-.638-.892-1.014-.166-.401-.261-.401-.261-1.487V8.928h.871c.234 0 .799.045 1.43.329.589.262.824.612 1.058.993.212.325.351 1.627.397 1.956.12.068.425.093.614.093a.83.83 0 00.467-.118c0-.638-.141-2.358-.141-3.304 0-1.18.164-2.806.233-3.651-.092-.051-.233-.098-.466-.098-.164 0-.471 0-.61.072-.071.33-.33 1.318-.379 1.39-.349.592-.963 1.04-1.593 1.23a6.346 6.346 0 01-1.363.186h-.492V5.812c0-2.264.046-2.995.069-3.422.024-.28.07-.588.095-.799.21-.025.328-.046 1.409-.046 1.358 0 1.995.021 2.205.021.659.051 1.151.19 1.504.473.891.685 1.573 1.767 2.252 2.925.141.046.377.046.494.046.141 0 .164-.046.353-.14 0-1.44-.097-3.304-.143-3.891-.025-.238-.069-.309-.538-.309-.189 0-1.08-.046-2.019-.046-1.337 0-1.879.025-3.923.025-1.102 0-3.38.021-4.342.021-1.407 0-2.606-.046-3.215-.046h-.8a.767.767 0 00-.115.376c0 .118.044.38.115.473.283.093 1.386.072 1.716.258.329.283.63.401.844 1.533.048.5.071 1.864.071 2.95v4.86c0 .988-.023 2.43-.048 3.017-.046.921-.375 2.029-.514 2.244-.214.164-1.177.304-2.115.35-.069.144-.117.38-.117.52s.048.31.117.427h.774c.753 0 3.522-.072 4.157-.072.586 0 1.714.047 3.075.047.75 0 2.958.143 7.7.143.187 0 .397.022.632-.05.072-.118.072-.165.095-.377.048-.472.048-1.863.048-3.773m20.233-7.665V1.07c0-.354-.139-.447-.492-.447-.705 0-4.412.093-8.167.093-2.912 0-5.331-.047-6.645-.047h-1.739c-.302 0-.397.071-.397.401v4.505c.095.072.256.098.376.098.093 0 .423 0 .516-.051 1.055-2.143 2.043-3.3 3.288-3.939.702-.067 2.086-.093 2.462-.093.024.258.049 1.086.07 2.075.025 1.698.025 2.43.025 6.44 0 3.47-.025 5.024-.071 5.4-.093.66.025 1.159-2.793 1.277-.071.164-.071.35-.071.54 0 .093 0 .284.025.377h.913c.87 0 2.912-.093 3.759-.093.679 0 2.864.071 4.294.071h.656c.071-.118.071-.376.071-.494a.887.887 0 00-.092-.427c-.261 0-1.762.047-2.418-.448a7.194 7.194 0 01-.213-1.77c-.023-2.544-.048-3.511-.048-5.21 0-2.194.025-3.68.025-7.763.328 0 1.081-.021 1.783 0 1.458.402 2.162.946 2.795 1.791.397.546.822 1.463 1.243 2.574.142.046.26.046.399.046.095 0 .4-.046.446-.092m20.634 2.97c0-3.3-1.455-5.823-4.178-7.336-1.456-.802-2.911-1.204-4.46-1.204-3.426 0-6.525 2.054-7.913 4.39-.891 1.463-1.358 3.064-1.358 4.763 0 2.713 1.314 5.38 3.356 6.913 1.549 1.133 3.309 1.695 5.353 1.695a9.67 9.67 0 003.566-.68 8.456 8.456 0 003.264-2.244c1.526-1.674 2.37-3.82 2.37-6.297m-4.248-.448c0 3.563-.986 6.702-2.324 7.81-.68.566-1.526.849-2.489.849-1.312 0-2.464-.52-3.12-1.58-.892-1.37-1.386-3.918-1.386-6.132 0-3.283.843-5.853 2.347-7.104.799-.659 1.619-.916 2.441-.916 1.27 0 2.49.612 3.194 1.627.891 1.225 1.337 2.996 1.337 5.446m26.9-7.5c0-.093-.021-.258-.069-.33h-.539c-1.175 0-1.923.047-4.039.047-.727 0-1.808-.047-2.064-.047h-.61c-.072.047-.095.308-.095.402 0 .118.023.304.116.4.378.119 1.808.28 2.418.686.424.494.612 1.483.683 2.404.022.35.044.706.044 1.673v4.932c0 .566-.022.752-.044 1.014-.401-.448-.963-1.297-1.903-2.358L160.291 1a1.523 1.523 0 00-.351-.305c-.189 0-.517-.025-.702-.025-1.506 0-4.227-.068-4.626-.068a.858.858 0 00-.095.326c0 .051.048.38.069.452.354.093 1.128.212 1.763.896.374.423 1.032 1.014 1.243 1.487.071.165.094.423.094.753 0 1.225-.071 2.949-.071 4.597v4.792c0 .778-.068 1.39-.139 1.792-.493.52-1.245.895-2.465 1.2-.048.122-.092.309-.092.426 0 .073.021.31.067.33h.446c.471 0 1.551-.071 2.254-.071 1.034 0 1.737.07 2.7.07h1.409c.092-.02.118-.307.118-.4a1.09 1.09 0 00-.072-.376c-.82-.211-2.018-.402-2.818-1.463-.164-.354-.303-2.1-.303-2.928 0-.752-.025-1.787-.025-3.182 0-1.863.025-3.49.049-4.315.141.166.305.376.423.516l10.845 12.247c.116.114.538.14.656.14.116 0 .188 0 .282-.047.046-.119.21-.5.21-1.06 0-.686-.023-1.396-.023-1.747V5.2c0-2.95 1.386-3.774 3.005-3.845.071-.119.092-.33.092-.448" clip-rule="evenodd"/>
                                    <mask id="svg-183572914" width="175" height="19" x="0" y="26" maskUnits="userSpaceOnUse">
                                        <path class="path-2" fill="#fff" fill-rule="evenodd" d="M.054 26.91H174.61v17.57H.054V26.91z" clip-rule="evenodd"/>
                                    </mask>
                                    <g mask="url(#svg-183572914)">
                                        <path class="path-3" fill="#fff" fill-rule="evenodd" d="M18.715 27.358a.491.491 0 00-.116-.305h-.678c-.73 0-1.716.047-2.562.047-.938 0-1.993-.047-2.677-.047h-.843c-.071.14-.096.186-.096.305 0 .097.025.19.071.308.097 0 1.808.02 2.113.448.259.355.822 1.225.915 1.745.046.237.19 1.204.19 2.595 0 2.003 0 3.347-.024 4.056-.049 1.323-.19 2.358-.424 3.136-.657 2.054-2.18 3.067-4.6 3.067a6.394 6.394 0 01-2.747-.591c-1.527-.752-2.255-2.193-2.276-2.97l-.12-7.074-.02-2.878c0-.545.679-1.04.912-1.322.19-.094 1.222-.191 1.808-.238.072-.139.118-.21.118-.33a.39.39 0 00-.164-.303l-.891.02c-.871.026-2.02.047-2.747.047-1.126 0-1.997-.02-2.7-.02H.174c-.096.067-.12.21-.12.329 0 .119.024.211.095.283.749.093 1.243.165 1.573.233.397.236.681.637.822 1.039.024.309.07 1.06.07 2.548v5.662c0 1.462.071 2.498.235 3.161.303 1.226.961 2.193 2.042 2.899 1.15.756 2.582 1.133 4.296 1.133 1.573 0 2.91-.33 4.037-.968 1.173-.634 1.9-1.673 2.323-3.136.234-.87.377-1.817.377-2.805v-4.53c0-.85.046-1.91.046-2.337.026-1.272.353-2.029.707-2.595.374-.118.702-.186 1.947-.33.046-.093.092-.164.092-.282m21.738-.119a.376.376 0 00-.072-.232h-.538c-1.173 0-1.69.046-3.802.046-.729 0-1.808-.046-2.064-.046h-.614c-.067.046-.093.21-.093.304 0 .118.026.165.118.258.376.118 1.808.283 2.418.685.42.498.61 1.487.681 2.408.021.35.046.706.046 1.673v7.007c0 .566-.025.755-.046 1.014-.4-.448-1.08-1.323-1.995-2.409L25.524 27.43a1.536 1.536 0 00-.354-.308c-.187 0-.42-.021-.61-.021-1.5 0-2.815-.072-3.217-.072-.044.093-.067.14-.067.237 0 .046.023.236.044.303.354.098 1.386.216 1.81.664.375.423.938.917 1.149 1.39.072.165.097.423.097.757 0 1.225-.072 3.465-.072 5.117v5.024c0 .778-.071 1.391-.141 1.792-.494.52-1.245.896-2.466 1.205-.046.118-.093.165-.093.283 0 .072.021.211.07.232h.445c.47 0 1.55-.068 2.257-.068 1.03 0 1.499.068 2.46.068h1.413c.093-.02.113-.211.113-.304a.443.443 0 00-.069-.237c-.82-.21-2.016-.401-2.815-1.462-.165-.355-.308-2.147-.308-2.97 0-.757-.023-1.982-.023-3.372 0-1.864.023-4.437.049-5.262.14.165.353.423.515.613l11.128 13.091c.115.119.163.14.284.14.113 0 .043 0 .139-.047.045-.118.117-.495.117-1.06 0-.685-.023-1.39-.023-1.745V31.392c0-2.95 1.385-3.778 3.004-3.846a.527.527 0 00.093-.308m10.61 16.488a.732.732 0 00-.07-.329c-.352-.025-1.313-.118-1.738-.21-.374-.45-.63-.969-.8-1.818-.02-1.133-.043-3.702-.043-5.9v-5.987c0-.638.256-1.137.423-1.276.445-.423 1.337-.52 2.088-.613a.701.701 0 00.07-.305.386.386 0 00-.12-.282h-.678c-.986 0-2.395.114-3.194.114-.49 0-1.901-.068-2.93-.093h-.518c-.072.093-.118.093-.118.304 0 .097.023.19.046.308 1.15.098 1.667.212 1.83.33.283.216.682.731.777 2.008.021.447.047 1.652.07 3.82.023 1.178.048 2.784.048 4.15 0 .687-.049 2.454-.071 3.278-.047.567-.164 1.112-.33 1.416-.28.236-.562.66-2.276.782a.907.907 0 00-.071.35c0 .19.048.19.048.308h.398c.939 0 2.394-.118 3.614-.118.353 0 1.9.068 2.677.068h.776a.552.552 0 00.092-.304M71.62 27.29c0-.098-.025-.237-.117-.262h-.8c-.563 0-1.455.046-1.854.046-1.9 0-2.582-.118-2.864-.118h-.42c-.05.118-.123.19-.123.309 0 .093.051.164.051.257.585.072 1.102.19 1.62.356.281.282.588.849.588 1.487 0 .232-.235 1.344-.568 2.146l-3.776 9.339-4.639-11.82c.07-.561.375-1.107.771-1.318.397-.046.886-.19 1.521-.19a.87.87 0 00.093-.33c0-.092-.021-.236-.118-.257h-.59c-.718 0-1.82.093-3.064.093-.539 0-1.595-.047-2.629-.047h-.915c-.048.093-.092.14-.092.284 0 .139.023.19.07.282a8.14 8.14 0 011.971.8c.447.662 1.41 3.046 1.927 4.292l1.943 4.72c1.615 3.918 2.577 6.534 2.695 6.982.118.072 0 .139.21.139s.19-.042.236-.16l6.056-14.626c.21-.52.538-1.014.845-1.348.374-.423 1.148-.587 1.876-.752.025-.093.096-.19.096-.304M89 40.166c0-.33 0-.474-.021-.685-.118-.072-.165-.072-.354-.072-.164 0-.139 0-.305.051-.517 1.72-1.407 2.996-2.418 3.609-.351.211-.986.257-1.993.257h-2.63c-.82-.025-1.338-.071-1.55-.118-.352-.067-.728-.638-.89-1.014-.168-.401-.26-.541-.26-1.627v-5.38h.752c.751 0 1.36.051 1.994.334.589.258 1.034.635 1.267 1.01.213.334.284 1.632.33 1.961.116.072.188.093.375.093s.21-.02.376-.118c0-.634-.14-2.358-.14-3.3 0-1.18.163-2.62.233-3.47-.093-.046-.141-.093-.374-.093-.167 0-.234 0-.377.068-.069.334-.259 1.322-.303 1.394-.353.588-1.177 1.061-1.808 1.252-.425.117-1.034.19-1.926.19h-.374v-2.316c0-2.261.046-3.183.067-3.609.025-.284.071-.587.097-.799.21-.025.891-.046 1.972-.046 1.359 0 2.37.021 2.582.021.656.046 1.148.19 1.502.473 1.15.896 1.455 1.488 2.09 2.924.14.047.161.047.281.047.14 0 .164-.047.35-.14 0-1.44-.093-3.067-.14-3.66-.025-.236-.07-.303-.54-.303-.187 0-1.079-.047-2.017-.047-1.34 0-1.88.021-3.923.021-1.101 0-3.049.026-4.012.026-1.409 0-1.716-.047-2.328-.047h-.803c-.071.094-.12.186-.12.28 0 .122.049.236.12.333.284.093 1.394.072 1.722.257.328.284.633.355.846 1.488.046.494.071 2.1.071 3.186v4.856c0 .989-.025 2.62-.048 3.207-.049.921-.377 2.079-.517 2.29-.213.165-1.176.305-2.122.351-.072.143-.12.237-.12.38 0 .14.048.212.12.33h.78c.755 0 2.635-.072 3.265-.072.59 0 1.386.047 2.749.047.75 0 2.956.143 7.7.143.187 0 .397.026.633-.047.071-.118.071-.164.094-.376.045-.473.045-1.63.045-3.54m19.695 3.583a.628.628 0 00-.115-.35c-.236 0-1.199-.048-1.552-.31a5.102 5.102 0 01-.397-.587 30.158 30.158 0 00-.987-2.95c-.492-1.178-1.173-2.29-1.737-2.805-.21-.19-.868-.499-1.69-.777-.374-.144-.681-.262-.963-.381.353-.068.517-.093.963-.14 1.526-.19 2.044-.519 2.49-.874.937-.706 1.547-1.766 1.547-3.043 0-1.91-1.22-3.727-2.933-4.267-.564-.165-1.575-.258-2.817-.258-1.76 0-3.077.16-4.25.16-.35 0-1.502-.046-2.322-.046-.353 0-1.244-.047-1.385-.047-.07.165-.118.215-.118.309 0 .093.023.232.048.33.398.046 1.125.14 1.502.21.563.423.752.757.986 1.277.115.752.14 2.878.14 6.203 0 2.405.024 5.426-.096 6.322-.067.587-.278 1.293-.96 1.576-.306.05-.87.143-1.338.169-.072.114-.12.212-.12.33 0 .071.048.164.097.282.328 0 3.028-.07 3.778-.07 1.504 0 1.878.07 3.215.07.048-.096.097-.164.097-.262 0-.164-.049-.257-.097-.35-.467-.046-1.055-.19-1.314-.237-.587-.282-1.007-.85-1.007-1.677l-.025-5.895c.189-.026.868-.026 1.055-.026.635 0 1.27.052 1.878.335.893.397 1.739 1.035 2.302 1.91.751 1.178 1.245 3.418 1.481 5.138.067.499.256.92.702.968.187.025.471.071 1.363.071h2.439a.403.403 0 00.14-.308m-4.928-12.5c0 1.509-1.197 3.208-2.58 3.516-.566.118-1.388.19-2.444.19-.281 0-1.08 0-1.432-.05l-.022-2.075v-4.458c0-.309.07-.473.163-.541.095-.072 1.056-.144 1.643-.144 2.205 0 3.217.212 4.016 1.369.445.638.656 1.369.656 2.194m20.772 8.138c0-1.889-.841-3.182-2.651-4.15-.494-.282-1.36-.591-2.606-.946-1.431-.402-2.628-.87-3.404-1.298-.515-.282-1.386-1.06-1.386-2.569 0-1.508 1.529-2.76 3.31-2.76 1.409 0 2.538.707 3.218 1.65.588.827.799 1.203 1.455 2.691.071.02.164.046.235.046.21 0 .4-.118.518-.236-.072-.592-.188-1.416-.188-2.122 0-.613.141-1.416.212-1.842-.191-.284-.401-.33-.706-.33-.328.216-.635.541-.917.85-1.547-1.25-2.815-1.463-3.989-1.463-2.887 0-4.951 1.936-4.951 4.505 0 .875.302 1.724.866 2.595.517.73 1.27 1.297 2.279 1.724.68.279 3.73 1.204 4.153 1.37 1.878.73 2.585 1.364 2.585 3.038 0 .828-.354 1.559-1.035 2.383-.61.756-1.573 1.111-2.606 1.111-1.104 0-3.004-.473-3.944-1.746-.564-.73-1.361-2.264-1.596-3.186-.164-.046-.164-.046-.328-.046a.83.83 0 00-.446.14c0 .308.095 1.863.095 2.336 0 1.154-.213 1.72-.259 2.1.069.237.469.473.753.473.49-.426 1.005-.755 1.173-.755.139 0 .349.067.56.21 1.526.994 2.796 1.18 3.923 1.18 3.31 0 5.677-1.674 5.677-4.953m11.599 4.34a.762.762 0 00-.071-.33c-.35-.025-1.312-.118-1.737-.21-.374-.45-.633-.969-.797-1.818a359.677 359.677 0 01-.048-5.9v-5.987c0-.638.26-1.137.422-1.276.446-.423 1.34-.52 2.088-.613a.69.69 0 00.072-.305.404.404 0 00-.116-.282h-.679c-.989 0-2.398.114-3.196.114-.493 0-1.901-.068-2.934-.093h-.517c-.069.093-.115.093-.115.304 0 .097.022.19.046.308 1.152.098 1.667.212 1.831.33.282.216.679.731.776 2.008.023.447.044 1.652.067 3.82.026 1.178.049 2.784.049 4.15 0 .687-.049 2.454-.072 3.278-.044.567-.164 1.112-.326 1.416-.284.236-.565.66-2.279.782a.955.955 0 00-.07.35c0 .19.045.19.045.308h.401c.941 0 2.396-.118 3.615-.118.353 0 1.901.068 2.679.068h.772a.575.575 0 00.094-.304m19.509-11.65V27.5c0-.354-.142-.448-.494-.448-.704 0-3.945.094-7.7.094-2.912 0-4.859-.047-6.176-.047h-1.734c-.305 0-.402.067-.402.401v4.268a.414.414 0 00.282.093c.096 0 .189 0 .283-.046.915-2.054 1.384-3.136 2.959-3.938.703-.073 3.167-.094 3.543-.094.024.258.048 1.082.072 2.075.023 1.699.023 2.616.023 6.63 0 3.465-.023 5.257-.071 5.633-.093.664.024 1.158-2.793 1.276-.071.165-.071.212-.071.402 0 .093 0 .186.025.282h.914c.868 0 2.017-.096 2.864-.096.68 0 1.973.071 3.404.071h.657c.071-.118.071-.236.071-.35a.542.542 0 00-.095-.334c-.258 0-1.76.05-2.418-.448a7.267 7.267 0 01-.212-1.766c-.021-2.548-.047-3.753-.047-5.451 0-2.194.026-3.867.026-7.949.328 0 2.064-.021 2.771 0 1.451.401 2.017.942 2.65 1.792.563.756.706 1.44 1.055 2.573a.936.936 0 00.353.047.441.441 0 00.261-.093m18.965-4.86c0-.144-.093-.19-.141-.283-.964 0-2.229.072-2.723.072-1.197 0-2.652-.098-3.287-.098-.071.144-.095.165-.095.283 0 .119.024.212.049.284.681.14 1.665.308 1.855.638.163.304.212.54.212.916 0 .284-.023.567-.143.875-.211.588-.656 1.51-1.289 2.806-1.081 2.194-1.762 3.563-2.139 4.103-.609-1.035-1.97-3.769-2.298-4.479l-1.317-2.877c-.046-.093-.092-.427-.092-.638 0-.304.046-.52.092-.613.214-.423.941-.47 1.927-.592.046-.113.069-.257.069-.35 0-.165-.069-.118-.14-.237h-.421c-1.575 0-1.106.072-3.806.072-1.148 0-2.534-.072-2.721-.072-.095.164-.143.19-.143.355 0 .093.025.164.097.283 1.57.376 2.04.659 2.206.968l4.108 8.088c.397.756.633 1.343.751 1.77.164.66.189 1.627.189 2.827 0 1.019-.353 1.56-.753 1.822-.163.092-1.339.257-1.877.303-.095.166-.12.212-.12.33 0 .119.048.19.071.283 1.199 0 2.444-.025 3.146-.025.494 0 1.245.025 2.63.05.798.022 1.407.047 1.83.047.048-.097.12-.19.12-.308a.522.522 0 00-.097-.304c-.751-.093-1.804-.237-2.04-.474-.378-.4-.563-.587-.611-1.508l-.188-3.541c-.025-.258.072-.495.095-.562.069-.262.162-.474.254-.664l3.617-7.192c.328-.613 1.035-1.298 1.503-1.58.331-.212 1.058-.356 1.527-.474.048-.118.093-.211.093-.304" clip-rule="evenodd"/>
                                    </g>
                                    <path class="path-4" fill="#F58025" fill-rule="evenodd" d="m8.13558,60.267c-0.31351,-0.88 -0.97788,-2.58 -1.34938,-3.48c-0.05897,-0.12 -0.11794,-0.26 -0.17592,-0.4c-0.21523,0.54 -0.46978,1.14 -0.84029,2.08c-0.54742,1.42 -0.99852,2.72 -1.07616,3l2.36559,0c0.5484,0 1.09582,0 1.44864,-0.08c-0.11794,-0.42 -0.19656,-0.68 -0.37248,-1.12m7.74543,7.36c-1.27076,0 -2.83537,-0.06 -4.04814,-0.06c-0.74299,0 -1.60294,0.04 -1.93611,0.04l-1.4683,0c-0.09828,-0.081 -0.11794,-0.28 -0.13661,-0.36c0,-0.081 0.01966,-0.24 0.11695,-0.36c0.76265,-0.04 1.17444,-0.12 1.44766,-0.26c0.1769,-0.2 0.27518,-0.58 0.27518,-0.98c-0.08059,-0.3 -0.23587,-0.78 -0.51105,-1.58c-0.1543,-0.48 -0.31155,-0.88 -0.44914,-1.22c-0.07764,-0.14 -0.25454,-0.461 -0.40983,-0.58c-0.8226,0.02 -3.01326,-0.02 -4.38328,0.04c-0.11597,0.22 -0.21425,0.48 -0.29189,0.74l-0.74299,2.34c0.07764,0.66 0.29189,1.1 0.56609,1.359c0.1769,0.08 0.70467,0.16 1.19312,0.2c0.05897,0.1 0.09828,0.26 0.07862,0.34c0,0.08 -0.01966,0.24 -0.07862,0.36l-0.52678,0c-0.70467,0 -1.46732,-0.08 -2.21129,-0.08c-0.68501,0 -1.87714,0.04 -2.28795,0.04a0.62604,0.637 0 0 1 -0.07764,-0.32c0.01867,-0.08 0.05897,-0.28 0.07764,-0.38c0.84029,-0.24 1.74053,-0.46 2.05405,-1.18c0.58673,-1.46 0.45012,-1.08 1.38771,-3.62c0.95921,-2.6 1.66388,-4.418 2.09336,-5.459c0.5484,-1.28 0.82162,-2 0.88059,-2.14c0.19459,-0.54 0.43047,-1 0.60639,-1.16c0.11695,-0.14 0.52776,-0.28 0.68501,-0.28c0.19459,0 0.99754,0.16 1.11449,0.32c0.03931,0.06 0.11695,0.22 0.17592,0.381l0.85995,2.18l2.93463,7.479c0.3715,0.92 0.54742,1.34 0.88059,2.14c0.15626,0.4 0.39017,0.86 0.50909,0.96c0.09631,0.08 1.11351,0.36 1.62162,0.439c0.03931,0.08 0.09828,0.26 0.11794,0.34c0,0.08 -0.05897,0.26 -0.11794,0.32m30.03822,-0.681c-0.03931,0.56 -0.05799,0.62 -0.41081,0.62c-0.40983,0 -3.05159,0.06 -5.71005,0.06c-1.5253,0 -2.7194,-0.02 -3.95085,-0.02c-0.84127,0 -2.23095,0.06 -2.91596,0.06l-0.39115,0c-0.03833,-0.08 -0.05897,-0.26 -0.05897,-0.34c0,-0.1 0.04029,-0.28 0.05897,-0.36c0.46978,-0.14 1.31007,-0.34 1.7995,-0.58c0.15725,-0.28 0.25553,-0.879 0.27518,-1.599c0,-0.34 0.01966,-1.1 0.01966,-2.68c0,-0.64 -0.03931,-2.52 -0.09828,-5.18c-0.01966,-1.019 -0.05897,-1.799 -0.11794,-2c-0.09828,-0.299 -0.25454,-0.64 -0.64472,-0.819c-0.3145,-0.08 -0.76265,-0.06 -1.23341,-0.18c-0.03833,-0.08 -0.05897,-0.3 -0.05897,-0.4c0,-0.14 0.04029,-0.24 0.09828,-0.32l7.37393,-0.02c0.05897,0.04 0.07862,0.24 0.07862,0.34c0,0.1 -0.01966,0.3 -0.07862,0.36c-0.89926,0.04 -2.01473,0.02 -2.01473,1.52l0,2.28l0.11794,7.479c0,0.38 0.35184,0.94 0.62604,1.18c0.39115,0.34 0.86093,0.52 1.66289,0.52c1.13317,0 1.50565,-0.24 2.38525,-0.7c1.0968,-0.58 1.87911,-1.88 2.4452,-3.28c0.09828,-0.04 0.29484,-0.06 0.39312,-0.06c0.1543,0 0.27322,0.02 0.39017,0.1c0.01966,0.76 0.01966,1.96 0.01966,2.2c0,0.58 -0.01966,1.2 -0.05897,1.82m31.94779,-13.079c-1.03587,0.12 -1.31105,0.18 -1.62358,0.28c-0.29386,0.48 -0.56806,1.12 -0.58673,2.2c0,0.36 -0.03931,1.26 -0.03931,1.98l0,3.68c0,0.84 -0.11794,1.64 -0.33219,2.379c-0.37248,1.24 -1.05552,2.14 -2.11301,2.7c-0.99656,0.54 -2.17198,0.82 -3.599,0.82c-1.54397,0 -2.83537,-0.32 -3.89188,-0.96c-0.95823,-0.6 -1.54496,-1.42 -1.81916,-2.46c-0.15725,-0.56 -0.21622,-1.48 -0.21622,-2.72l0,-4.64c0,-1.259 -0.03735,-1.899 -0.05799,-2.16c-0.11794,-0.339 -0.35184,-0.68 -0.68304,-0.88c-0.27518,-0.06 -0.68599,-0.12 -1.31105,-0.199c-0.05995,-0.06 -0.07862,-0.24 -0.07862,-0.34c0,-0.1 0.01867,-0.32 0.09828,-0.38l0.82064,0c0.58673,0 2.05405,0.02 2.99262,0.02c0.60639,0 2.15233,-0.02 2.87566,-0.04l0.74299,-0.02c0.07862,0.06 0.13759,0.26 0.13759,0.36c0,0.1 -0.03931,0.26 -0.09828,0.38c-0.48943,0.04 -1.35036,0.12 -1.50565,0.2c-0.19656,0.24 -0.60737,0.66 -0.60737,1.12l0.01966,2.24l0.07862,5.58c0.01966,0.658 0.54742,1.959 1.72186,2.599c0.60639,0.32 1.27076,0.56 2.05405,0.56c1.83783,0 2.99262,-0.92 3.48205,-2.66c0.17494,-0.66 0.29189,-1.66 0.3312,-2.78c0.01966,-0.6 0.01966,-1.28 0.01966,-2.98c0,-1.18 -0.11695,-1.8 -0.15725,-1.999c-0.07666,-0.44 -0.54644,-1.18 -0.76167,-1.48c-0.25553,-0.36 -1.68255,-0.38 -1.76019,-0.38c-0.03931,-0.1 -0.05897,-0.28 -0.05897,-0.36c0,-0.1 0.01966,-0.24 0.07764,-0.36l0.70467,0c0.56609,0 1.44766,0.04 2.22997,0.04c0.70368,0 1.72186,-0.04 2.32726,-0.04l0.56707,0c0.05897,0.06 0.09828,0.28 0.09828,0.36c0,0.1 -0.03931,0.26 -0.07862,0.34m36.13058,13.739l-3.89286,0c-0.86093,0 -2.01572,0.02 -3.83389,0.04a0.6683,0.68 0 0 1 -0.09828,-0.34c0,-0.12 0.04029,-0.3 0.09828,-0.4c1.428,-0.06 2.0737,-0.24 2.09238,-1.8l0.09828,-8.74l0,-1c-0.8796,1.98 -1.60294,3.64 -2.60146,5.96c-0.39115,0.92 -0.66535,1.56 -0.97788,2.38c-0.58575,1.5 -1.01621,2.82 -1.17346,3.4c-0.03931,0.14 -0.46978,0.24 -0.56806,0.24c-0.11695,0 -0.44914,-0.16 -0.54742,-0.42c-0.46879,-1.22 -0.58673,-1.52 -0.72334,-1.84l-4.30269,-9.86l0,1.4l0.13661,7.6c0.03931,1.86 0.97788,2.68 2.46486,2.76c0.01867,0.08 0.05897,0.28 0.05897,0.34c0,0.08 -0.04029,0.24 -0.09828,0.34l-0.60639,0c-0.90024,0 -1.79852,-0.08 -2.58279,-0.08c-0.39115,0 -1.13317,0.02 -1.74053,0.02l-0.82162,0c-0.05897,-0.06 -0.09631,-0.28 -0.09631,-0.38c0,-0.08 0.01966,-0.24 0.05897,-0.32c0.76167,-0.12 1.83783,-0.44 1.97444,-0.56c0.09828,-0.1 0.39115,-1.08 0.39115,-1.96l0,-8.6c0,-0.459 -0.07862,-0.959 -0.15725,-1.06c-0.13563,-0.179 -0.3715,-0.78 -2.01473,-0.78a0.65356,0.665 0 0 1 -0.09828,-0.38c0,-0.099 0.02162,-0.24 0.07961,-0.36c0.33219,0 1.54496,0.041 2.30761,0.041c1.99606,-0.02 2.8167,-0.02 3.42308,-0.02c0.09828,0.12 0.17592,0.2 0.23489,0.32l3.91153,9.139l0.48943,-1.22c0.82162,-2.06 1.60393,-4 2.87468,-6.599c0.2742,-0.56 0.47076,-0.94 0.52874,-1.04c0.2742,-0.56 0.33219,-0.58 0.78231,-0.58l3.16756,-0.02l1.25307,-0.06l0.52776,0c0.05799,0.06 0.07961,0.24 0.07961,0.32c0,0.12 -0.02162,0.3 -0.07961,0.38c-1.46732,0.06 -2.28795,0.5 -2.28795,1.84l0,7.639c0,1.62 0.0973,2.38 0.33219,2.8c0.3715,0.58 1.03587,0.7 1.95577,0.78c0.05799,0.06 0.07961,0.24 0.07961,0.32c0,0.12 -0.04029,0.26 -0.09828,0.36m32.97973,-13.819c-1.35036,0.06 -2.50318,0.761 -2.50318,3.26l0,8.34c0,0.3 0.01867,0.9 0.01867,1.48c0,0.48 -0.13759,0.8 -0.17592,0.899c-0.07862,0.04 -0.13759,0.04 -0.23587,0.04c-0.09631,0 -0.44914,-0.02 -0.54742,-0.12l-9.03584,-10.379c-0.0973,-0.12 -0.23489,-0.3 -0.35184,-0.44c-0.02064,0.7 -0.04029,2.08 -0.04029,3.66c0,1.18 0.01966,2.06 0.01966,2.7c0,0.7 0.11892,2.18 0.25454,2.48c0.66535,0.9 1.66289,1.06 2.34692,1.24c0.03931,0.08 0.05897,0.24 0.05897,0.32c0,0.08 -0.01966,0.32 -0.09631,0.34l-1.17444,0c-0.80295,0 -1.38968,-0.06 -2.24864,-0.06c-0.58771,0 -1.48796,0.06 -1.87911,0.06l-0.3715,0c-0.03833,-0.02 -0.05897,-0.22 -0.05897,-0.28c0,-0.1 0.04029,-0.26 0.07862,-0.36c1.01621,-0.26 1.64324,-0.58 2.05306,-1.02c0.06093,-0.34 0.11892,-0.86 0.11892,-1.52l0,-4.06c0,-1.4 0.05897,-2.86 0.05897,-3.9c0,-0.28 -0.02064,-0.5 -0.07961,-0.64c-0.17592,-0.4 -0.72334,-0.9 -1.03685,-1.26c-0.52776,-0.579 -1.17248,-0.68 -1.46633,-0.76c-0.01966,-0.06 -0.05897,-0.34 -0.05897,-0.38c0,-0.08 0.03931,-0.2 0.07862,-0.28c0.33219,0 2.60146,0.06 3.85257,0.06c0.15626,0 0.43047,0.02 0.58771,0.02c0.11695,0.081 0.23391,0.18 0.29386,0.261l6.53265,7.398c0.78132,0.901 1.2511,1.58 1.58427,2c0.01867,-0.22 0.03833,-0.379 0.03833,-0.86l0,-4.179c0,-0.82 -0.01966,-1.12 -0.03833,-1.42c-0.05897,-0.78 -0.21523,-1.62 -0.56806,-2.04c-0.50811,-0.34 -1.70122,-0.479 -2.01473,-0.58c-0.07764,-0.08 -0.09828,-0.24 -0.09828,-0.34c0,-0.08 0.02064,-0.3 0.07961,-0.34l0.50811,0c0.21523,0 1.11547,0.04 1.72186,0.04c1.75921,0 2.38623,-0.04 3.36412,-0.04l0.44914,0c0.04029,0.061 0.05897,0.2 0.05897,0.28c0,0.1 -0.01867,0.28 -0.07764,0.38m24.33406,13.819l-0.6457,0c-0.6457,0 -2.67911,-0.06 -2.97198,-0.06c-1.01818,0 -2.97394,0.099 -3.75527,0.099l-0.33317,0c0,-0.1 -0.03931,-0.18 -0.03931,-0.34c0,-0.08 0.01966,-0.34 0.05897,-0.42c1.42702,-0.1 1.66289,-0.46 1.89778,-0.66c0.13563,-0.26 0.23391,-0.719 0.27322,-1.2c0.01867,-0.7 0.05897,-2 0.05897,-2.579c0,-1.16 -0.01966,-2.56 -0.04029,-3.56c-0.01867,-1.84 -0.03735,-2.66 -0.05799,-3.04c-0.07764,-1.08 -0.40983,-1.519 -0.6457,-1.7c-0.13661,-0.099 -0.56609,-0.2 -1.5253,-0.279c-0.01966,-0.1 -0.03833,-0.3 -0.03833,-0.38c0,-0.18 0.03833,-0.26 0.09631,-0.34l0.43047,0c0.86093,0.02 2.77739,0.08 3.18918,0.08c0.66437,0 2.58083,-0.1 3.40244,-0.1l0.56806,0c0.03931,0.04 0.09828,0.2 0.09828,0.32c0,0.08 -0.02064,0.3 -0.05897,0.38c-0.62604,0.08 -1.37002,0.16 -1.74053,0.52c-0.13759,0.12 -0.35282,0.54 -0.35282,1.08l0,4.92c0,1.859 0.01867,3.839 0.03931,4.799c0.13661,0.72 0.35184,1.16 0.66535,1.54c0.35086,0.08 1.15282,0.16 1.44766,0.18c0.03833,0.08 0.05799,0.3 0.05799,0.4c0,0.08 -0.01966,0.24 -0.07862,0.34" clip-rule="evenodd"/>
                                </svg>