<svg width="127" height="131" viewBox="0 0 127 131" xmlns="http://www.w3.org/2000/svg">
          <path fill-rule="evenodd" clip-rule="evenodd" d="M68.7773 98.0975L68.5603 98.5142C66.0446 102.962 63.1443 107.277 59.9343 111.342L59.7004 111.642C55.0005 117.531 48.3453 123.993 41.331 129.473C34.3214 123.995 27.6651 117.535 22.9639 111.645L22.9651 111.644L22.7277 111.342C19.5248 107.285 16.627 102.978 14.1101 98.5287L14.1209 98.5191L13.8847 98.0975C8.91952 89.2407 5.35749 79.7727 3.29863 69.958L3.1805 69.5062C1.34463 60.5069 0.785318 51.3143 1.51701 42.1664C4.71139 43.0651 8.01907 43.5217 11.3593 43.5217C23.5052 43.5217 34.8988 37.3345 41.331 27.3108C42.7678 29.548 44.4615 31.5822 46.3443 33.4098C46.4155 32.9194 46.4914 32.4302 46.5806 31.9422C44.7893 30.1121 43.1873 28.0839 41.8469 25.8577L41.331 25L40.8163 25.8577C34.7048 36.0082 23.4184 42.3137 11.3593 42.3137C7.88768 42.3137 4.45463 41.804 1.15297 40.8014L0.442977 40.5851L0.377884 41.3256C-0.468324 50.9881 0.107869 60.705 2.09441 70.2056L2.21857 70.6864H2.22098C4.28587 80.2945 7.77678 89.5693 12.5997 98.2678L12.5864 98.2775L12.8215 98.6991C15.3625 103.242 18.2965 107.644 21.5439 111.79L21.5415 111.792L21.7802 112.094C26.632 118.241 33.6235 125.028 40.9633 130.715L41.331 131L41.6998 130.715C49.0409 125.025 56.0335 118.238 60.883 112.094L61.2133 111.669L61.2121 111.668C64.4269 107.553 67.3272 103.194 69.8405 98.6991L70.0635 98.2678H70.0623C73.3386 92.3597 75.9833 86.1821 78 79.8198C77.607 79.7304 77.2104 79.6531 76.8211 79.5528C74.7839 85.9526 72.1043 92.164 68.7773 98.0975Z" fill="#F58025"></path>
          <mask id="mask0" mask-type="alpha" maskUnits="userSpaceOnUse" x="47" y="0" width="80" height="79">
            <path fill-rule="evenodd" clip-rule="evenodd" d="M47.8438 0.153809H126.526V78.4419H47.8438V0.153809Z" fill="white"></path>
          </mask>
          <g mask="url(#mask0)">
            <path fill-rule="evenodd" clip-rule="evenodd" d="M114.213 66.0842C107.057 73.243 97.5347 77.1861 87.4013 77.1861C84.6268 77.1861 81.8801 76.8673 79.2001 76.2745C78.805 76.1873 78.4122 76.0964 78.0207 75.997C74.6062 75.1267 71.3201 73.7957 68.2728 72.0067L68.2013 71.9618C67.891 71.7776 67.5419 71.6867 67.1928 71.6867C66.7625 71.6867 66.3298 71.8248 65.965 72.1048C61.7007 75.4236 57.2838 76.4212 54.331 76.6733L51.3456 76.9267L53.5771 74.9242C55.8147 72.9157 57.7334 70.1218 59.2801 66.6188L59.3383 66.4964C59.6244 65.8539 59.5504 65.1351 59.1516 64.5691L58.8159 64.1715C51.8147 56.163 48.7844 45.9509 49.6365 36.0273C49.6765 35.5533 49.7237 35.0806 49.7831 34.6091C50.7856 26.4915 54.4038 18.6503 60.5989 12.4624C67.7565 5.30726 77.2692 1.36787 87.3916 1.36787H87.4013C97.5286 1.36787 107.052 5.3109 114.213 12.4697C121.372 19.6248 125.314 29.146 125.314 39.277C125.314 49.4042 121.371 58.9242 114.213 66.0842ZM115.07 11.6127C107.679 4.22483 97.8534 0.155745 87.4013 0.155745V0.15332C76.9516 0.15332 67.1286 4.21999 59.7419 11.6054C53.5383 17.8018 49.8462 25.6054 48.6862 33.717C48.6183 34.1945 48.5601 34.6733 48.5092 35.1533C47.4001 45.6527 50.508 56.5351 57.9419 65.0127L58.0231 65.1036C58.045 65.1291 58.0668 65.1533 58.0886 65.1788L58.1165 65.2091C58.2898 65.4164 58.3419 65.6794 58.2595 65.9291L58.2231 66.0127C56.7371 69.4127 54.9007 72.1073 52.7674 74.0224L47.8438 78.4418L54.4341 77.8806C57.5504 77.6151 62.211 76.563 66.7092 73.06C66.851 72.9521 67.0195 72.8951 67.1892 72.8951C67.3068 72.8951 67.4219 72.9218 67.5298 72.9763L67.5904 73.0115C70.7504 74.8757 74.1601 76.2612 77.7031 77.1654C78.0934 77.2648 78.485 77.3557 78.8801 77.4442C81.6631 78.0636 84.5177 78.3982 87.4013 78.3982C97.8583 78.3982 107.685 74.3291 115.07 66.9412C122.458 59.5521 126.526 49.7279 126.526 39.277C126.526 28.8224 122.458 18.997 115.07 11.6127Z" fill="black"></path>
          </g>
        </svg>