<?xml version="1.0" encoding="UTF-8" standalone="no"?>
<!DOCTYPE svg PUBLIC "-//W3C//DTD SVG 1.1//EN" "http://www.w3.org/Graphics/SVG/1.1/DTD/svg11.dtd">
<svg width="100%" height="100%" viewBox="0 0 30 31" version="1.1" xmlns="http://www.w3.org/2000/svg" xmlns:xlink="http://www.w3.org/1999/xlink" xml:space="preserve" xmlns:serif="http://www.serif.com/" style="fill-rule:evenodd;clip-rule:evenodd;stroke-linejoin:round;stroke-miterlimit:2;">
    <g transform="matrix(1,0,0,1,-0.59082,-0.476563)">
        <path d="M30.314,14.801C30.174,10.97 28.559,7.341 25.807,4.671C23.055,2.002 19.378,0.499 15.545,0.477L15.472,0.477C12.89,0.475 10.353,1.145 8.109,2.421C5.864,3.698 3.991,5.537 2.674,7.757C1.356,9.977 0.639,12.502 0.593,15.083C0.547,17.665 1.175,20.214 2.413,22.479L1.098,30.347C1.096,30.363 1.097,30.379 1.102,30.395C1.107,30.411 1.114,30.425 1.125,30.437C1.136,30.45 1.149,30.459 1.164,30.466C1.179,30.473 1.195,30.477 1.211,30.477L1.234,30.477L9.016,28.746C11.026,29.711 13.228,30.212 15.459,30.211L15.884,30.211C17.846,30.155 19.777,29.711 21.567,28.905C23.356,28.098 24.968,26.946 26.31,25.513C27.651,24.08 28.696,22.396 29.383,20.557C30.07,18.719 30.387,16.763 30.314,14.801ZM15.81,27.625L15.459,27.625C13.487,27.628 11.544,27.156 9.794,26.25L9.396,26.042L4.118,27.289L5.092,21.95L4.866,21.567C3.786,19.725 3.204,17.634 3.178,15.499C3.152,13.364 3.682,11.258 4.717,9.391C5.752,7.523 7.255,5.957 9.079,4.847C10.903,3.737 12.985,3.122 15.119,3.061L15.477,3.061C18.699,3.071 21.789,4.346 24.08,6.612C26.372,8.877 27.681,11.953 27.727,15.175C27.772,18.397 26.55,21.508 24.323,23.838C22.097,26.168 19.044,27.529 15.823,27.63L15.81,27.625Z" style="fill-rule:nonzero;"/>
    </g>
    <g transform="matrix(1,0,0,1,-0.59082,-0.476563)">
        <path d="M10.289,8.167C10.106,8.17 9.925,8.211 9.757,8.285C9.589,8.36 9.438,8.468 9.312,8.602C8.958,8.966 7.967,9.84 7.91,11.677C7.853,13.513 9.136,15.33 9.315,15.585C9.495,15.84 11.769,19.807 15.514,21.416C17.716,22.365 18.681,22.527 19.306,22.527C19.564,22.527 19.759,22.5 19.962,22.488C20.648,22.446 22.197,21.653 22.535,20.79C22.872,19.928 22.895,19.174 22.806,19.023C22.717,18.872 22.473,18.764 22.105,18.571C21.737,18.378 19.932,17.413 19.593,17.277C19.467,17.218 19.332,17.183 19.193,17.173C19.103,17.178 19.016,17.204 18.938,17.251C18.86,17.297 18.795,17.361 18.748,17.438C18.447,17.814 17.755,18.63 17.523,18.865C17.472,18.923 17.409,18.97 17.339,19.003C17.269,19.036 17.193,19.053 17.115,19.055C16.973,19.049 16.833,19.011 16.707,18.945C15.614,18.48 14.617,17.816 13.768,16.985C12.975,16.203 12.302,15.308 11.772,14.329C11.567,13.949 11.772,13.753 11.959,13.575C12.146,13.397 12.346,13.152 12.539,12.939C12.698,12.757 12.83,12.554 12.931,12.336C12.984,12.234 13.01,12.121 13.009,12.007C13.007,11.893 12.977,11.781 12.921,11.681C12.832,11.491 12.167,9.623 11.855,8.874C11.601,8.233 11.3,8.212 11.036,8.192C10.819,8.177 10.57,8.17 10.321,8.162L10.289,8.162" style="fill-rule:nonzero;"/>
    </g>
</svg>
