<?xml version="1.0" encoding="UTF-8" standalone="no"?>
<!DOCTYPE svg PUBLIC "-//W3C//DTD SVG 1.1//EN" "http://www.w3.org/Graphics/SVG/1.1/DTD/svg11.dtd">
<svg width="100%" height="100%" viewBox="0 0 120 40" version="1.1" xmlns="http://www.w3.org/2000/svg" xmlns:xlink="http://www.w3.org/1999/xlink" xml:space="preserve" xmlns:serif="http://www.serif.com/" style="fill-rule:evenodd;clip-rule:evenodd;stroke-linejoin:round;stroke-miterlimit:2;">
    <g transform="matrix(1,0,0,1,0,-42.5)">
        <path d="M17.189,67.884L0,67.884L8.027,53.066L25.217,53.066L17.189,67.884Z" style="fill:#0cacd7;fill-rule:nonzero;"/>
        <path d="M25.171,53.066L27.467,53.066L27.467,58.566L27.508,58.566C28.133,57.525 29.442,56.879 30.61,56.879C33.893,56.879 35.485,59.465 35.485,62.61C35.485,65.507 34.075,68.236 30.993,68.236C29.583,68.236 28.072,67.883 27.386,66.465L27.346,66.465L27.346,67.945L25.171,67.945L25.171,53.066ZM30.308,58.755C28.376,58.755 27.387,60.277 27.387,62.568C27.387,64.735 28.454,66.361 30.308,66.361C32.403,66.361 33.189,64.444 33.189,62.568C33.188,60.61 32.201,58.755 30.306,58.755L30.308,58.755ZM53.274,56.908C51.905,56.908 50.715,57.637 50.03,58.825L49.991,58.784L49.991,57.199L47.814,57.199L47.814,66.376C46.506,66.391 46.383,66.391 46.284,66.391C45.861,66.391 45.74,66.16 45.74,65.576L45.74,60.035C45.74,57.765 43.605,56.909 41.57,56.909C39.272,56.909 36.996,57.721 36.836,60.494L39.131,60.494C39.233,59.327 40.139,58.785 41.428,58.785C42.355,58.785 43.583,59.015 43.583,60.243C43.583,61.64 42.113,61.451 40.462,61.765C38.527,61.994 36.453,62.432 36.453,65.119C36.453,67.225 38.143,68.266 40.018,68.266C41.247,68.266 42.717,67.871 43.626,66.954C43.805,67.934 44.471,68.268 45.396,68.268C45.78,68.268 46.504,68.121 50.097,67.996L50.097,67.975L50.112,67.975L50.112,61.62C50.112,60.035 51.099,58.785 52.629,58.785C53.979,58.785 54.623,59.514 54.664,61.202L54.664,67.975L56.962,67.975L56.962,60.578C56.966,58.16 55.535,56.911 53.278,56.911L53.274,56.909L53.274,56.908ZM43.448,64.349C43.448,65.848 41.876,66.39 40.869,66.39C40.063,66.39 38.753,66.077 38.753,65.015C38.753,63.763 39.639,63.389 40.626,63.222C41.635,63.034 42.743,63.055 43.448,62.577L43.448,64.349ZM68.786,67.945L66.611,67.945L66.611,66.486L66.571,66.486C65.967,67.715 64.657,68.237 63.348,68.237C60.065,68.237 58.472,65.714 58.472,62.485C58.472,58.588 60.708,56.879 62.986,56.879C64.294,56.879 65.745,57.38 66.45,58.566L66.491,58.566L66.491,53.066L68.786,53.066L68.786,67.945ZM63.65,66.361C65.704,66.361 66.571,64.423 66.571,62.547C66.571,60.172 65.463,58.754 63.691,58.754C61.534,58.754 60.768,60.734 60.768,62.672C60.768,64.527 61.654,66.361 63.651,66.361L63.65,66.361ZM77.912,60.805C77.731,59.492 76.805,58.782 75.535,58.782C74.346,58.782 72.675,59.43 72.675,62.701C72.675,64.494 73.44,66.39 75.434,66.39C76.764,66.39 77.691,65.472 77.912,63.929L80.208,63.929C79.786,66.722 78.113,68.265 75.434,68.265C72.171,68.265 70.377,65.869 70.377,62.701C70.377,59.451 72.091,56.908 75.515,56.908C77.932,56.908 79.988,58.159 80.21,60.805L77.911,60.805L77.912,60.805ZM104.103,56.908C102.593,56.908 101.605,57.596 100.839,58.699C100.376,57.471 99.188,56.908 97.918,56.908C96.266,56.908 95.399,57.637 94.715,58.699L94.655,58.699L94.655,57.202L92.478,57.202L92.478,66.376C91.168,66.391 91.046,66.391 90.946,66.391C90.524,66.391 90.403,66.162 90.403,65.579L90.403,60.034C90.403,57.763 88.267,56.908 86.232,56.908C83.937,56.908 81.659,57.72 81.497,60.492L83.795,60.492C83.896,59.326 84.803,58.782 86.092,58.782C87.017,58.782 88.248,59.013 88.248,60.242C88.248,61.638 86.776,61.449 85.123,61.763C83.191,61.993 81.115,62.431 81.115,65.117C81.115,67.223 82.808,68.265 84.681,68.265C85.909,68.265 87.381,67.869 88.288,66.953C88.469,67.932 89.134,68.266 90.06,68.266C90.442,68.266 91.168,68.12 94.728,67.994L94.728,67.973L94.774,67.973L94.774,61.576C94.774,59.785 95.863,58.784 97.052,58.784C98.441,58.784 98.885,59.575 98.885,61.055L98.885,67.973L101.18,67.973L101.18,61.659C101.18,59.846 101.845,58.784 103.396,58.784C105.189,58.784 105.291,59.972 105.291,61.682L105.291,67.973L107.586,67.973L107.586,60.535C107.588,57.908 106.299,56.908 104.104,56.908L104.103,56.908ZM88.107,64.349C88.107,65.848 86.537,66.39 85.529,66.39C84.723,66.39 83.414,66.076 83.414,65.015C83.414,63.763 84.3,63.389 85.286,63.222C86.294,63.034 87.402,63.055 88.109,62.577L88.109,64.348L88.107,64.349ZM109.663,57.2L111.838,57.2L111.838,58.658L111.879,58.658C112.524,57.43 113.772,56.908 115.102,56.908C118.386,56.908 119.977,59.492 119.977,62.639C119.977,65.535 118.566,68.265 115.485,68.265C114.157,68.265 112.725,67.765 112,66.578L111.959,66.578L111.959,71.952L109.663,71.952L109.663,57.2ZM114.8,58.782C112.866,58.782 111.879,60.305 111.879,62.597C111.879,64.763 112.946,66.39 114.8,66.39C116.895,66.39 117.682,64.473 117.682,62.597C117.682,60.639 116.693,58.782 114.798,58.782L114.8,58.782Z" style="fill-rule:nonzero;"/>
    </g>
</svg>
