<?xml version="1.0" encoding="UTF-8" standalone="no"?>
<!DOCTYPE svg PUBLIC "-//W3C//DTD SVG 1.1//EN" "http://www.w3.org/Graphics/SVG/1.1/DTD/svg11.dtd">
<svg width="100%" height="100%" viewBox="0 0 118 27" version="1.1" xmlns="http://www.w3.org/2000/svg" xmlns:xlink="http://www.w3.org/1999/xlink" xml:space="preserve" xmlns:serif="http://www.serif.com/" style="fill-rule:evenodd;clip-rule:evenodd;stroke-linejoin:round;stroke-miterlimit:2;">
    <path d="M30.012,6.878C30.012,2.234 25.08,0 19.22,0C12.951,0 7.2,2.773 5.088,7.073C4.506,8.218 4.203,9.485 4.205,10.77C4.179,11.881 4.486,12.974 5.088,13.908C5.993,15.241 7.608,16.08 9.978,16.08C12.885,16.08 15.19,14.489 15.19,11.715C15.19,11.715 15.233,10.942 14.328,10.942C13.595,10.942 13.401,11.458 13.423,11.715C13.531,13.887 12.238,15.628 9.933,15.628C7.349,15.628 6.271,13.435 6.271,11.092C6.271,6.298 9.891,3.117 13.66,1.74C15.427,1.074 17.28,0.751 19.174,0.773C23.44,0.773 26.929,2.407 26.929,6.793C26.929,10.448 23.849,13.565 20.164,13.844L20.315,13.35C21.069,10.663 21.995,7.718 23.503,5.547C23.589,5.417 23.74,5.202 23.913,4.987L23.697,4.729C23.375,4.924 23.066,5.139 22.771,5.373C15.706,10.876 15.491,26.356 6.077,26.356C5.754,26.356 5.431,26.334 5.107,26.291C3.147,25.968 2.113,24.657 2.113,22.831C2.113,22.465 2.242,21.971 2.242,21.691C2.242,21.682 2.242,21.673 2.242,21.664C2.242,21.153 1.826,20.731 1.315,20.724L1.208,20.724C0.368,20.724 0.023,21.389 0.001,22.336C-0.063,25.066 1.962,26.656 5.085,26.958C5.43,26.979 5.775,27 6.141,27C13.487,27 17.988,21.454 19.906,14.725C20.877,14.613 21.836,14.412 22.771,14.125C26.179,13.177 30.012,10.898 30.012,6.878M99.981,8.488L97.397,8.488L96.814,9.843L95.802,12.123L94.596,12.123L94.23,12.897L95.479,12.897L93.971,16.229C92.894,18.571 91.213,20.872 90.244,20.872C90.029,20.872 89.9,20.786 89.9,20.572C89.9,20.355 89.964,20.162 90.202,19.56C90.503,18.851 91,17.819 91.366,17.066C91.904,15.97 92.766,14.272 92.766,13.433C92.766,12.594 92.226,11.928 91.171,11.928C89.986,11.928 88.909,12.638 87.919,13.668L88.566,12.121L86.13,12.121L84.149,16.635C83.352,18.226 81.736,20.87 80.724,20.87C80.509,20.87 80.422,20.741 80.422,20.526C80.444,20.333 80.487,20.161 80.573,19.966C80.659,19.772 81.844,17 81.844,17L83.998,12.077L81.37,12.077L79.28,16.872C78.634,18.355 76.996,20.872 75.94,20.872C75.929,20.873 75.918,20.874 75.908,20.874C75.736,20.874 75.59,20.741 75.574,20.57L75.574,20.484C75.574,20.227 75.768,19.754 75.918,19.408L77.018,17L79.28,12.077L76.674,12.077L76.157,13.195C75.769,13.948 75.123,14.829 74.089,14.829C73.593,14.829 73.357,14.636 73.249,14.442C73.098,12.786 72.042,11.905 70.491,11.905C68.337,11.905 66.807,13.173 65.794,14.722C65.13,15.789 64.609,16.938 64.244,18.14C63.317,19.667 62.349,20.85 61.573,20.85C61.378,20.85 61.249,20.741 61.249,20.484C61.249,20.227 61.509,19.646 61.595,19.43L63.296,15.82C63.77,14.703 64.093,13.97 64.093,13.24C64.093,12.466 63.553,11.908 62.671,11.908C61.443,11.908 60.107,12.618 59.051,13.778C59.095,13.584 59.095,13.413 59.095,13.218C59.095,12.359 58.665,11.908 57.78,11.908C56.66,11.908 55.498,12.575 54.442,13.778L55.132,12.1L52.76,12.1L50.757,16.616C49.809,18.745 48.279,20.852 47.417,20.852C47.224,20.852 47.095,20.744 47.095,20.486C47.095,20.079 47.547,19.068 47.72,18.66L50.37,12.663C50.564,12.211 49.293,11.931 47.677,11.931C46.019,11.931 44.317,12.748 43.067,13.801C42.185,14.531 41.537,14.897 41.214,14.897C41.043,14.897 40.977,14.811 40.977,14.704C40.977,14.339 41.86,13.306 41.86,12.511C41.86,12.146 41.667,11.909 41.17,11.909C40.223,11.909 39.103,12.812 38.284,13.757L38.974,12.102L36.647,12.102L34.644,16.617C33.697,18.746 32.123,20.96 31.262,20.96C31.067,20.96 30.938,20.853 30.938,20.594C30.938,20.187 31.368,19.198 31.606,18.68L34.256,12.661C34.45,12.21 33.179,11.929 31.564,11.929C29.172,11.929 26.846,13.543 25.617,15.197C24.26,16.981 23.334,18.872 23.313,20.421C23.291,21.667 23.938,22.441 25.229,22.441C26.673,22.441 27.836,21.302 28.503,20.443C28.465,20.613 28.437,20.785 28.417,20.958C28.417,21.818 28.761,22.442 29.817,22.442C30.742,22.442 31.971,21.667 32.962,20.442L32.165,22.271L34.685,22.271L37.163,16.661C37.982,14.833 38.908,13.887 39.166,13.887C39.253,13.887 39.296,13.931 39.296,13.994C39.296,14.188 38.908,14.704 38.908,15.176C38.908,15.65 39.166,16.015 39.856,16.015C40.394,16.015 40.996,15.756 41.536,15.413C40.264,17.133 39.402,18.939 39.402,20.423C39.38,21.67 40.027,22.444 41.32,22.444C42.677,22.444 43.948,21.154 44.637,20.294C44.611,20.494 44.596,20.695 44.594,20.897C44.594,21.735 45.068,22.444 46.038,22.444C47.114,22.444 47.976,21.778 49.054,20.467L48.257,22.273L50.842,22.273L53.212,16.921C54.245,14.599 55.645,13.352 56.334,13.352C56.345,13.351 56.356,13.35 56.368,13.35C56.528,13.35 56.663,13.473 56.679,13.632L56.679,13.697C56.65,13.958 56.577,14.213 56.463,14.449L53.06,22.296L55.71,22.296L58.122,16.836C59.156,14.492 60.298,13.352 61.159,13.352C61.419,13.352 61.525,13.482 61.525,13.76C61.503,14.059 61.422,14.352 61.288,14.62L58.961,19.564C58.747,20.04 58.616,20.549 58.573,21.069C58.573,21.822 58.983,22.489 60.146,22.489C61.654,22.489 62.795,21.349 64.088,19.65L64.088,20.016C64.196,21.37 64.948,22.552 66.953,22.552C69.323,22.552 71.241,20.919 72.403,18.318C72.835,17.393 73.135,16.425 73.243,15.414C73.503,15.544 73.803,15.608 74.084,15.587C74.472,15.587 74.859,15.5 75.204,15.307L74.794,16.189C74.32,17.178 73.804,18.274 73.394,19.199C73.137,19.746 72.984,20.336 72.942,20.939C72.942,21.864 73.459,22.531 74.515,22.531C75.57,22.531 77.015,21.541 78.048,20.144L78.07,20.144C78.001,20.433 77.965,20.728 77.962,21.025C77.962,21.8 78.199,22.531 79.276,22.531C80.526,22.531 81.495,21.628 82.442,20.488L81.646,22.294L84.252,22.294L86.342,17.564C87.526,14.898 88.711,13.285 89.81,13.285C90.005,13.285 90.154,13.414 90.176,13.608L90.176,13.672C90.176,14.124 89.529,15.35 88.949,16.575C88.41,17.692 88,18.552 87.721,19.219C87.461,19.778 87.311,20.379 87.268,21.004C87.268,21.82 87.721,22.444 88.734,22.444C90.242,22.444 91.771,20.983 92.589,19.886C92.405,20.412 92.304,20.962 92.288,21.519C92.288,23.025 93.192,23.777 94.463,23.777C95.303,23.777 96.123,23.497 96.812,23.003C97.803,22.314 98.6,21.283 99.268,20.337L98.815,19.907C98.19,20.787 97.502,21.627 96.79,22.142C96.415,22.458 95.945,22.64 95.455,22.658C94.915,22.658 94.572,22.378 94.572,21.69C94.572,21.002 94.895,20.077 95.39,18.83C95.412,18.81 96.122,17.219 96.79,15.692C97.35,14.402 97.91,13.155 98.017,12.897L99.719,12.897L100.064,12.122L98.384,12.122L99.981,8.488ZM26.501,20.893C26.135,20.893 25.876,20.764 25.876,20.291C25.898,19.023 26.952,16.765 28.267,14.959C29.193,13.712 30.399,12.787 31.692,12.787L30.055,16.442C28.828,19.195 27.493,20.892 26.501,20.892M42.615,20.892C42.249,20.892 41.991,20.763 41.969,20.29C41.99,19.022 43.046,16.764 44.361,14.958C45.286,13.711 46.493,12.786 47.785,12.786L46.148,16.441C44.899,19.258 43.628,20.891 42.615,20.891M71.222,13.776C71.158,15.173 69.929,18.548 68.487,20.569C67.906,21.386 67.409,21.623 66.979,21.623C66.376,21.623 66.203,21.128 66.289,20.397C66.419,19.129 67.474,16.162 68.939,14.119C69.606,13.194 70.059,12.807 70.577,12.807C71.093,12.807 71.244,13.238 71.222,13.776M111.428,12.124L113.799,6.657L110.991,6.657L108.62,12.124L102.65,12.124L101.656,14.418L107.625,14.418L105.253,19.885L108.062,19.885L110.433,14.417L116.401,14.417L117.396,12.124L111.428,12.124Z" style="fill-rule:nonzero;"/>
</svg>
