<svg class="campaign campaign--left" width="1200" height="1078" viewbox="0 0 1200 1078" fill="none" xmlns="http://www.w3.org/2000/svg">
                                                    <path fill-rule="evenodd" clip-rule="evenodd" d="M88.1942 896.21C-22.5072 831.236 -101.275 727.04 -133.6 602.83C-165.925 478.623 -147.934 349.257 -82.9451 238.579C-17.9559 127.896 86.2561 49.1424 210.489 16.8232C334.725 -15.5015 464.111 2.49182 574.81 67.4689C708.062 145.681 863.798 167.333 1013.34 128.429C1101.4 105.521 1181.09 63.2128 1247.71 5.10434V40.4275C1181.74 93.6108 1104.63 132.654 1020.16 154.629C863.618 195.352 700.593 172.686 561.109 90.8122C456.642 29.4943 334.542 12.5199 217.306 43.0178C100.071 73.5185 1.73181 147.832 -59.5974 252.28C-120.927 356.729 -137.904 478.801 -107.398 596.014C-76.8943 713.231 -2.56677 811.551 101.903 872.869C187.252 922.965 257.498 991.585 308.531 1073.14H276.278C228.43 1001.54 164.657 941.092 88.1942 896.21Z" fill="#F58025"/>
                                                    <path fill-rule="evenodd" clip-rule="evenodd" d="M122.188 841.649C-75.957 725.393 -142.522 469.706 -26.1962 271.683C30.0623 175.901 120.437 107.712 228.271 79.6686C336.113 51.6284 448.277 67.1555 544.112 123.38C618.739 167.167 699.784 195.046 784.993 206.239C867.228 217.042 949.781 211.898 1030.36 190.945C1109.52 170.369 1182.89 135.491 1248.54 87.3407V117.979C1184.15 162.586 1112.99 195.246 1036.64 215.098C952.941 236.864 867.181 242.207 781.739 230.983C693.198 219.349 608.996 190.385 531.469 144.902C441.386 92.0459 335.938 77.456 234.56 103.819C133.177 130.179 48.2177 194.283 -4.66711 284.316C-57.5519 374.348 -72.1506 479.727 -45.7721 581.047C-19.3936 682.366 44.7441 767.275 134.833 820.13C212.36 865.617 278.703 924.98 332.015 996.574C350.234 1021.04 366.62 1046.57 381.199 1073.04H352.534C340.249 1051.84 326.744 1031.29 311.984 1011.47C260.678 942.57 196.821 885.439 122.188 841.649Z" fill="#F58025"/>
                                                    <path fill-rule="evenodd" clip-rule="evenodd" d="M151.877 788.659C-16.1475 690.054 -72.5979 473.185 26.046 305.227C124.687 137.265 341.636 80.8369 509.669 179.442C591.694 227.578 680.796 258.228 774.503 270.54C864.909 282.419 955.655 276.766 1044.21 253.734C1116.41 234.958 1184.25 205.376 1246.49 165.596V192.559C1185.62 229.767 1119.78 257.729 1049.98 275.886C958.555 299.661 864.865 305.498 771.516 293.234C674.757 280.516 582.76 248.873 498.079 199.178C340.936 106.965 138.042 159.737 45.7898 316.812C-46.4597 473.89 6.33276 676.704 163.47 768.92C248.151 818.616 320.632 883.491 378.897 961.75C405.516 997.499 428.576 1035.32 448.053 1074.9H422.473C404.705 1040.22 384.037 1006.99 360.53 975.413C304.105 899.626 233.905 836.792 151.877 788.659Z" fill="#F58025"/>
                                                    <path fill-rule="evenodd" clip-rule="evenodd" d="M184.359 734.828C46.5798 654.089 0.290771 476.515 81.1787 338.988C120.299 272.466 183.139 225.112 258.124 205.637C333.1 186.156 411.1 196.945 477.74 235.995C567.089 288.358 664.181 321.701 766.31 335.098C864.828 348.021 963.689 341.882 1060.15 316.827C1125.79 299.781 1188.11 274.529 1246.36 241.491V265.253C1189.49 296.391 1128.96 320.416 1065.39 336.928C966.316 362.656 864.778 368.972 763.6 355.691C658.691 341.924 558.969 307.678 467.204 253.902C405.357 217.658 332.961 207.656 263.361 225.732C193.758 243.812 135.427 287.768 99.1162 349.503C24.0428 477.152 67.0028 641.977 194.893 716.917C286.655 770.69 365.213 840.92 428.388 925.646C463.256 972.416 492.54 1022.42 516.067 1075.17H493.208C470.977 1026.92 443.776 981.072 411.699 938.049C350.194 855.56 273.709 787.186 184.359 734.828Z" fill="#F58025"/>
                                                    <path fill-rule="evenodd" clip-rule="evenodd" d="M219.409 679.099C111.856 615.935 75.7268 477.01 138.86 369.417C202.007 261.82 340.876 225.676 448.424 288.841C545.089 345.611 650.155 381.771 760.7 396.312C867.31 410.329 974.278 403.666 1078.64 376.501C1138.01 361.048 1194.89 339.361 1248.78 311.731V332.671C1196.21 358.878 1140.94 379.633 1083.35 394.62C976.643 422.401 867.263 429.205 758.26 414.875C645.214 400.01 537.785 363.037 438.947 304.99C340.294 247.046 212.918 280.205 155.003 378.895C97.0909 477.587 130.234 605.014 228.884 662.952C327.725 721.001 412.359 796.829 480.425 888.328C523.439 946.153 558.55 1008.57 585.493 1074.75H565.288C539.332 1012.64 505.945 953.997 465.41 899.507C398.847 810.029 316.079 735.875 219.409 679.099Z" fill="#F58025"/>
                                                    <path fill-rule="evenodd" clip-rule="evenodd" d="M248.291 622.591C170.801 577.175 144.767 477.292 190.264 399.935C212.264 362.518 247.608 335.877 289.779 324.923C331.956 313.969 375.823 320.034 413.302 342.002C517.462 403.048 630.698 441.926 749.861 457.572C864.766 472.641 980.043 465.482 1092.49 436.272C1145.94 422.394 1197.48 403.799 1246.87 380.747V399.082C1198.72 421.055 1148.58 438.891 1096.68 452.369C982.15 482.115 864.735 489.418 747.693 474.06C626.303 458.123 510.962 418.522 404.87 356.34C371.222 336.622 331.844 331.176 293.974 341.021C256.109 350.855 224.381 374.769 204.626 408.356C184.875 441.94 179.422 481.258 189.276 519.056C199.129 556.855 223.084 588.536 256.726 608.253C362.826 670.433 453.687 751.673 526.776 849.717C577.962 918.38 618.737 993.065 648.672 1072.6H630.856C601.681 996.707 562.406 925.364 513.414 859.643C441.66 763.4 352.462 683.64 248.291 622.591Z" fill="#F58025"/>
                                                    <path fill-rule="evenodd" clip-rule="evenodd" d="M282.89 569.115C260.027 555.72 243.752 534.205 237.058 508.534C230.362 482.863 234.07 456.161 247.492 433.348C260.915 410.526 282.473 394.282 308.194 387.608C333.91 380.931 360.674 384.625 383.54 398.023C495.018 463.334 616.223 504.931 743.785 521.666C866.777 537.8 990.152 530.137 1110.49 498.888C1158.05 486.54 1204.2 470.689 1248.8 451.537V467.393C1205.32 485.732 1160.39 500.957 1114.16 512.959C991.994 544.681 866.744 552.46 741.887 536.077C612.383 519.093 489.333 476.862 376.161 410.557C356.656 399.128 333.816 395.977 311.863 401.676C289.907 407.378 271.507 421.241 260.057 440.709C248.605 460.171 245.444 482.962 251.155 504.873C256.869 526.786 270.76 545.146 290.265 556.575C403.434 622.877 500.355 709.514 578.342 814.09C637.563 893.497 683.721 980.449 716.213 1073.36H700.771C668.859 983.642 623.965 899.62 566.657 822.772C489.84 719.766 394.365 634.425 282.89 569.115Z" fill="#F58025"/>
                                                    <path fill-rule="evenodd" clip-rule="evenodd" d="M314.433 515.795C306.179 510.952 300.306 503.174 297.893 493.894C295.477 484.609 296.818 474.956 301.66 466.702C306.501 458.453 314.283 452.581 323.562 450.162C332.84 447.744 342.498 449.085 350.746 453.931C469.408 523.595 598.437 567.97 734.248 585.825C865.17 603.035 996.496 594.863 1124.59 561.539C1166.34 550.669 1207.08 537.255 1246.72 521.436V534.9C1208.06 550.109 1168.36 563.029 1127.72 573.603C998.078 607.338 865.147 615.611 732.622 598.188C595.148 580.114 464.543 535.196 344.437 464.684C339.057 461.52 332.757 460.658 326.703 462.227C320.644 463.803 315.569 467.635 312.41 473.016C309.255 478.394 308.379 484.693 309.961 490.755C311.535 496.812 315.366 501.886 320.744 505.044C440.844 575.559 543.716 667.722 626.502 778.974C693.63 869.181 744.959 968.534 779.668 1074.99H766.558C732.289 971.277 682.004 874.443 616.501 786.416C534.717 676.514 433.086 585.465 314.433 515.795Z" fill="#F58025"/>
                                                    <path fill-rule="evenodd" clip-rule="evenodd" d="M558.473 624.73L543.717 610.261L563.588 616.052C616.596 631.494 671.48 642.991 726.715 650.228C866.107 668.486 1005.92 659.816 1142.28 624.465C1178.5 615.076 1213.98 603.871 1248.72 590.992V602.089C1214.81 614.525 1180.2 625.361 1144.9 634.51C1007.23 670.199 866.082 678.949 725.357 660.516C676.241 654.08 627.394 644.306 579.877 631.416C614.338 666.48 646.707 704.211 676.282 743.81C751.566 844.596 808.164 956.165 844.988 1075.99H834.121C797.627 958.454 741.862 848.985 667.928 750.003C634.667 705.476 597.843 663.328 558.473 624.73Z" fill="#F58025"/>
                                                    <path fill-rule="evenodd" clip-rule="evenodd" d="M717.082 710.781L726.592 711.949C870.266 729.589 1014.34 719.889 1154.82 683.107C1185.41 675.1 1215.48 665.819 1245.08 655.424V664.296C1216.16 674.369 1186.78 683.391 1156.92 691.206C1018.5 727.447 876.596 737.587 735.01 721.373C812.016 829.361 869.467 948.638 906.141 1076.42H897.471C860.151 947.4 801.492 827.144 722.731 718.567L717.082 710.781Z" fill="#F58025"/>
                                                    <path fill-rule="evenodd" clip-rule="evenodd" d="M841.016 784.898L846.54 784.984C955.625 786.715 1064.97 773.632 1171.53 746.089C1196.67 739.593 1221.5 732.318 1246.02 724.313V730.858C1222.01 738.651 1197.71 745.741 1173.1 752.099C1067.79 779.319 959.791 792.507 851.943 791.273C903.059 879.854 942.737 974.981 970.079 1074.31H963.598C935.928 974.318 895.672 878.626 843.786 789.649L841.016 784.898Z" fill="#F58025"/>
                                                    <path fill-rule="evenodd" clip-rule="evenodd" d="M947.912 845.757L950.992 845.558C1031.48 840.299 1112.28 827.22 1191.15 806.698C1210.92 801.553 1230.51 795.957 1249.91 789.924V794.3C1230.85 800.205 1211.62 805.698 1192.21 810.75C1114.08 831.083 1034.07 844.128 954.337 849.533C988.48 921.804 1016.09 998.039 1036.41 1076.17C1036.48 1076.42 1036.54 1076.67 1036.6 1076.92H1032.28C1011.77 998.145 983.828 921.313 949.236 848.547L947.912 845.757Z" fill="#F58025"/>
                                                    <path fill-rule="evenodd" clip-rule="evenodd" d="M1040.15 904.204L1039.65 902.969L1040.98 902.794C1095.57 895.621 1150.49 884.921 1204.22 870.998C1218.46 867.311 1232.6 863.383 1246.65 859.256V861.417C1232.77 865.489 1218.81 869.367 1204.75 873.01C1151.37 886.84 1096.81 897.493 1042.57 904.674C1062.71 955.33 1079.95 1007.95 1093.84 1061.12C1095.25 1066.49 1096.62 1071.87 1097.95 1077.26H1095.81C1094.51 1072.05 1093.19 1066.84 1091.83 1061.64C1077.85 1008.13 1060.46 955.159 1040.15 904.204Z" fill="#F58025"/>
                                                </svg>